<svg width="90" height="90" viewBox="0 0 90 90" fill="none" xmlns="http://www.w3.org/2000/svg">
<rect width="90" height="90" fill="white"/>
<path opacity="0.5" d="M63 29.25H72C72 16.4835 59.6025 10.6605 49.5 9.3195V0H40.5V9.3195C30.3975 10.6605 18 16.4835 18 29.25C18 41.427 29.997 47.7585 40.5 49.185V71.55C33.984 70.4205 27 66.942 27 60.75H18C18 72.4005 28.9125 79.2855 40.5 80.712V85.4955V90H49.5V85.4955V80.685C59.6025 79.344 72 73.5165 72 60.75C72 47.9835 59.6025 42.1605 49.5 40.8195V18.45C55.485 19.5255 63 22.6845 63 29.25ZM27 29.25C27 22.6845 34.515 19.5255 40.5 18.45V40.0455C34.3305 38.907 27 35.5365 27 29.25ZM63 60.75C63 67.3155 55.485 70.4745 49.5 71.55V49.95C55.485 51.0255 63 54.1845 63 60.75Z" fill="#D9EEE0"/>
</svg>
